<svg width="406" height="306" viewBox="0 0 406 306" fill="none" xmlns="http://www.w3.org/2000/svg">
<path d="M196.118 292.837L13.6924 185.023C7.88656 181.765 2.90291 176.406 8.56661 172.904L191.642 67.3442C194.393 65.639 198.564 64.5225 201.356 66.1465L392.805 177.36C398.611 180.73 399.656 190.149 393.82 193.529L220.164 292.664C216.516 294.78 212.38 295.909 208.164 295.939C203.947 295.969 199.796 294.9 196.118 292.837Z" fill="#A2C609"/>
<path style="mix-blend-mode:multiply" opacity="0.91" d="M158.33 216.001L223.777 258.611L265.534 231.449L197.336 200.867" fill="url(#paint0_linear_16_3)"/>
<path style="mix-blend-mode:multiply" opacity="0.91" d="M187.247 253.658C186.922 253.658 162.573 246.147 162.248 246.177L147.926 256.936L209.587 294.694L234.749 277.571L187.247 253.658Z" fill="url(#paint1_linear_16_3)"/>
<path style="mix-blend-mode:multiply" opacity="0.91" d="M49.2681 176.792L109.904 215.291L135.066 198.168L68.8678 164.114" fill="url(#paint2_linear_16_3)"/>
<path d="M205.03 164.267L217.677 240.392C217.751 240.838 217.999 241.238 218.368 241.501C218.736 241.765 219.194 241.871 219.641 241.797C220.088 241.723 220.487 241.475 220.751 241.106C221.014 240.738 221.121 240.28 221.047 239.833L208.4 163.708C208.326 163.261 208.077 162.862 207.709 162.599C207.341 162.335 206.883 162.228 206.436 162.302C205.989 162.377 205.59 162.625 205.326 162.993C205.063 163.362 204.956 163.82 205.03 164.267Z" fill="#C24327"/>
<path d="M186.283 144.098L158.34 216.001C158.176 216.424 158.186 216.894 158.369 217.309C158.552 217.724 158.892 218.05 159.314 218.214C159.737 218.378 160.208 218.368 160.623 218.185C161.038 218.002 161.363 217.662 161.527 217.239L189.48 145.337C189.644 144.913 189.633 144.441 189.45 144.025C189.266 143.609 188.925 143.283 188.501 143.119C188.077 142.955 187.605 142.966 187.189 143.149C186.773 143.333 186.447 143.674 186.283 144.098Z" fill="#C24327"/>
<path d="M192.586 123.798L193.916 200.938C193.924 201.392 194.112 201.824 194.438 202.139C194.765 202.454 195.203 202.626 195.656 202.618C196.11 202.61 196.542 202.422 196.857 202.096C197.172 201.769 197.344 201.331 197.336 200.878L196.007 123.738C195.999 123.284 195.811 122.852 195.484 122.537C195.158 122.222 194.72 122.05 194.266 122.058C193.812 122.066 193.381 122.254 193.066 122.58C192.75 122.907 192.578 123.345 192.586 123.798Z" fill="#C24327"/>
<path d="M195.296 169.879C212.534 169.879 226.507 163.545 226.507 155.73C226.507 147.916 212.534 141.581 195.296 141.581C178.059 141.581 164.085 147.916 164.085 155.73C164.085 163.545 178.059 169.879 195.296 169.879Z" fill="#13897E"/>
<path d="M200.676 125.219V40.1625C200.68 39.2143 200.933 38.2839 201.41 37.4644C201.887 36.6449 202.571 35.9652 203.393 35.4933C204.216 35.0215 205.148 34.7741 206.096 34.7759C207.044 34.7777 207.975 35.0286 208.796 35.5036L316.528 98.9411C317.338 99.4194 318.009 100.101 318.476 100.918C318.942 101.735 319.187 102.659 319.187 103.6V189.773C319.187 190.73 318.933 191.67 318.451 192.497C317.968 193.324 317.276 194.008 316.443 194.479C315.61 194.951 314.667 195.193 313.71 195.181C312.754 195.169 311.817 194.904 310.996 194.412L203.305 129.848C202.505 129.368 201.842 128.69 201.381 127.879C200.921 127.068 200.678 126.152 200.676 125.219Z" fill="#B095FE"/>
<path d="M205.588 94.0488C205.507 94.2214 205.081 95.8251 204.746 95.4901C204.411 95.1552 202.635 95.9164 202.635 95.9164L197.681 89.6133L198.341 87.5833H202.807" fill="#68E1FD"/>
<path d="M181.685 66.8874L181.218 65.2533L176.001 62.4113V53.53C176.001 53.3575 181.076 56.4938 181.076 56.4938L181.309 55.9965C181.593 54.6381 182.112 53.3397 182.842 52.1598L179.097 45.41L183.715 41.8372L187.196 48.8204C188.465 48.5282 189.786 48.5526 191.043 48.8915V42.2026L197.712 45.8972V52.9109C199.021 54.1524 200.214 55.5114 201.275 56.9709L205.335 54.4029L209.872 63.0406L206.268 65.9029L206.573 67.3543C207.039 68.8866 207.412 70.4458 207.689 72.0233L213.038 74.9668V83.8075L207.963 80.7625C207.744 82.3744 207.183 83.921 206.319 85.2995L210.135 91.7752L205.294 95.4394L201.894 88.7708H197.671V95.4394L191.307 91.5621V85.0559C189.848 83.6237 188.56 82.0262 187.471 80.2956L183.715 82.965L179.097 74.1447L182.933 71.3128L182.558 69.9933C182.172 68.9073 181.878 67.8923 181.685 66.8874Z" fill="#68E1FD"/>
<path d="M169.556 57.2246L175.453 53.662L176.925 55.8341L174.641 60.6147" fill="#68E1FD"/>
<path d="M177.27 86.619L181.634 84.8022V82.1632" fill="#68E1FD"/>
<path d="M191.297 99.1847L197.702 95.4901L196.078 90.6384L190.313 92.3335L191.297 99.1847Z" fill="#68E1FD"/>
<path d="M183.766 41.8372L177.351 45.5318L180.873 52.5353L184.72 52.6064L185.603 45.5318L183.766 41.8372Z" fill="#68E1FD"/>
<path d="M189.516 77.0544C191.003 76.4701 191.394 73.924 190.389 71.3675C189.385 68.811 187.365 67.2121 185.878 67.7963C184.391 68.3806 184 70.9267 185.005 73.4832C186.009 76.0397 188.029 77.6386 189.516 77.0544Z" fill="#68E1FD"/>
<path d="M197.793 45.8972L191.388 49.5918L184.72 45.8972L191.125 42.2026L197.793 45.8972Z" fill="#68E1FD"/>
<path d="M198.97 58.1381L205.375 54.4435L209.912 63.0812L203.508 66.7758L198.97 58.1381Z" fill="#68E1FD"/>
<path d="M210.166 91.826L203.761 95.5307L198.92 99.1847L205.335 95.4901L210.166 91.826Z" fill="#68E1FD"/>
<path opacity="0.44" d="M205.588 94.0488C205.507 94.2214 205.081 95.8251 204.746 95.4901C204.411 95.1552 202.635 95.9164 202.635 95.9164L197.681 89.6133L198.341 87.5833H202.807" fill="#053855"/>
<path d="M181.685 66.8874L181.218 65.2533L176.001 62.4113V53.53C176.001 53.3575 181.076 56.4938 181.076 56.4938L181.309 55.9965C181.593 54.6381 182.112 53.3397 182.842 52.1598L179.097 45.41L183.715 41.8372L187.196 48.8204C188.465 48.5282 189.786 48.5526 191.043 48.8915V42.2026L197.712 45.8972V52.9109C199.021 54.1524 200.214 55.5114 201.275 56.9709L205.335 54.4029L209.872 63.0406L206.268 65.9029L206.573 67.3543C207.039 68.8866 207.412 70.4458 207.689 72.0233L213.038 74.9668V83.8075L207.963 80.7625C207.744 82.3744 207.183 83.921 206.319 85.2995L210.135 91.7752L205.294 95.4394L201.894 88.7708H197.671V95.4394L191.307 91.5621V85.0559C189.848 83.6237 188.56 82.0262 187.471 80.2956L183.715 82.965L179.097 74.1447L182.933 71.3128L182.558 69.9933C182.172 68.9073 181.878 67.8923 181.685 66.8874Z" fill="#68E1FD"/>
<path opacity="0.44" d="M169.556 57.2246L175.453 53.662L176.925 55.8341L174.641 60.6147" fill="#053855"/>
<path d="M177.27 86.619L181.634 84.8022V82.1632" fill="#68E1FD"/>
<path d="M191.297 99.1847L197.702 95.4901L196.078 90.6384L190.313 92.3335L191.297 99.1847Z" fill="#68E1FD"/>
<path d="M183.766 41.8372L177.351 45.5318L180.873 52.5353L184.72 52.6064L185.603 45.5318L183.766 41.8372Z" fill="#68E1FD"/>
<path d="M189.516 77.0544C191.003 76.4701 191.394 73.924 190.389 71.3675C189.385 68.811 187.365 67.2121 185.878 67.7963C184.391 68.3806 184 70.9267 185.005 73.4832C186.009 76.0397 188.029 77.6386 189.516 77.0544Z" fill="#68E1FD"/>
<path d="M198.97 58.1381L205.375 54.4435L209.912 63.0812L203.508 66.7758L198.97 58.1381Z" fill="#68E1FD"/>
<path d="M210.166 91.826L203.761 95.5307L198.92 99.1847L205.335 95.4901L210.166 91.826Z" fill="#68E1FD"/>
<path opacity="0.44" d="M181.685 66.8874L181.218 65.2533L176.001 62.4113V53.53C176.001 53.3575 181.076 56.4938 181.076 56.4938L181.309 55.9965C181.593 54.6381 182.112 53.3397 182.842 52.1598L179.097 45.41L183.715 41.8372L187.196 48.8204C188.465 48.5282 189.786 48.5526 191.043 48.8915V42.2026L197.712 45.8972V52.9109C199.021 54.1524 200.214 55.5114 201.275 56.9709L205.335 54.4029L209.872 63.0406L206.268 65.9029L206.573 67.3543C207.039 68.8866 207.412 70.4458 207.689 72.0233L213.038 74.9668V83.8075L207.963 80.7625C207.744 82.3744 207.183 83.921 206.319 85.2995L210.135 91.7752L205.294 95.4394L201.894 88.7708H197.671V95.4394L191.307 91.5621V85.0559C189.848 83.6237 188.56 82.0262 187.471 80.2956L183.715 82.965L179.097 74.1447L182.933 71.3128L182.558 69.9933C182.172 68.9073 181.878 67.8923 181.685 66.8874Z" fill="#053855"/>
<path opacity="0.1" d="M177.27 86.619L181.634 84.8022V82.1632" fill="#053855"/>
<path opacity="0.1" d="M191.297 99.1847L197.702 95.4901L196.078 90.6384L190.313 92.3335L191.297 99.1847Z" fill="#053855"/>
<path opacity="0.1" d="M189.516 77.0544C191.003 76.4701 191.394 73.924 190.389 71.3675C189.385 68.811 187.365 67.2121 185.878 67.7963C184.391 68.3806 184 70.9267 185.005 73.4832C186.009 76.0397 188.029 77.6386 189.516 77.0544Z" fill="#053855"/>
<path opacity="0.1" d="M198.97 58.1381L205.375 54.4435L209.912 63.0812L203.508 66.7758L198.97 58.1381Z" fill="#053855"/>
<path opacity="0.1" d="M210.166 91.826L203.761 95.5307L198.92 99.1847L205.335 95.4901L210.166 91.826Z" fill="#053855"/>
<path opacity="0.1" d="M177.27 86.619L181.634 84.8022V82.1632" fill="#053855"/>
<path opacity="0.44" d="M191.297 99.1847L197.702 95.4901L196.078 90.6384L190.313 92.3335L191.297 99.1847Z" fill="#053855"/>
<path d="M175.23 70.582L174.763 68.9479L169.505 66.1059V57.2246C169.505 57.0521 174.58 60.1884 174.58 60.1884L174.813 59.6911C175.097 58.3327 175.616 57.0343 176.346 55.8544L172.672 49.0742L177.331 45.5318L180.843 52.515C182.111 52.2228 183.432 52.2472 184.689 52.5861V45.8972L191.358 49.5918V56.575C192.667 57.8166 193.86 59.1756 194.921 60.635L198.981 58.0671L203.518 66.7047L199.955 69.6381L200.26 71.0895C200.726 72.6218 201.099 74.181 201.376 75.7585L206.725 78.702V87.5427L201.65 84.4977C201.418 86.1205 200.84 87.6746 199.955 89.055L203.771 95.5307L198.94 99.205L195.54 92.5365H191.317V99.205L184.953 95.3277V88.7505C183.486 87.3163 182.191 85.7152 181.096 83.98L177.27 86.5987L172.652 77.7885L176.488 74.9567L176.113 73.6372C175.768 72.6019 175.473 71.5869 175.23 70.582Z" fill="#68E1FD"/>
<path opacity="0.44" d="M189.516 77.0544C191.003 76.4701 191.394 73.924 190.389 71.3675C189.385 68.811 187.365 67.2121 185.878 67.7963C184.391 68.3806 184 70.9267 185.005 73.4832C186.009 76.0397 188.029 77.6386 189.516 77.0544Z" fill="#053855"/>
<path opacity="0.44" d="M210.166 91.826L203.761 95.5307L198.92 99.1847L205.335 95.4901L210.166 91.826Z" fill="#053855"/>
<path d="M197.793 45.8972L191.388 49.5918L184.72 45.8972L191.125 42.2026L197.793 45.8972Z" fill="#68E1FD"/>
<path opacity="0.44" d="M197.793 45.8769L191.399 49.5918L184.72 45.9175L191.114 42.2026L197.793 45.8769Z" fill="#053855"/>
<path d="M213.089 75.0074L206.674 78.702V87.5528L213.089 83.8582V75.0074Z" fill="#68E1FD"/>
<path opacity="0.44" d="M213.089 75.0074L206.674 78.702V87.5528L213.089 83.8582V75.0074Z" fill="#053855"/>
<path d="M266.803 120.703V54.545C266.803 53.8983 266.975 53.2633 267.299 52.704C267.624 52.1447 268.09 51.681 268.652 51.3597C269.213 51.0384 269.849 50.8709 270.496 50.8742C271.142 50.8774 271.777 51.0513 272.335 51.3782L356.417 100.93C357.756 101.717 358.865 102.84 359.636 104.188C360.407 105.536 360.812 107.061 360.812 108.614V175.391C360.811 176.04 360.638 176.678 360.31 177.239C359.983 177.8 359.512 178.263 358.947 178.583C358.382 178.903 357.742 179.067 357.092 179.059C356.443 179.051 355.807 178.871 355.25 178.537L270.944 128.011C269.682 127.254 268.637 126.183 267.911 124.902C267.185 123.621 266.804 122.175 266.803 120.703Z" fill="#68E1FD"/>
<path d="M195.296 166.225C212.534 166.225 226.507 159.891 226.507 152.076C226.507 144.262 212.534 137.927 195.296 137.927C178.059 137.927 164.085 144.262 164.085 152.076C164.085 159.891 178.059 166.225 195.296 166.225Z" fill="#16A79E"/>
<path d="M167.455 147.326V148.25L167.922 148.818" fill="#ADCEE1"/>
<path d="M185.907 136.151L167.983 147.255C167.816 147.353 167.678 147.492 167.582 147.659C167.487 147.827 167.436 148.016 167.436 148.209C167.436 148.402 167.487 148.592 167.582 148.759C167.678 148.926 167.816 149.066 167.983 149.163L195.185 164.551C195.563 164.769 195.991 164.884 196.428 164.884C196.864 164.884 197.293 164.769 197.671 164.551L215.566 154.015C216.865 153 216.763 150.97 215.566 150.858L188.516 136.07C188.115 135.845 187.66 135.733 187.2 135.748C186.741 135.762 186.294 135.901 185.907 136.151Z" fill="#88D3D8"/>
<path d="M185.907 135.38L167.983 146.494C167.816 146.591 167.678 146.731 167.582 146.898C167.487 147.066 167.436 147.255 167.436 147.448C167.436 147.641 167.487 147.83 167.582 147.998C167.678 148.165 167.816 148.304 167.983 148.402L195.185 163.789C195.563 164.008 195.991 164.123 196.428 164.123C196.864 164.123 197.293 164.008 197.671 163.789L215.515 153.294C215.726 153.174 215.901 152.999 216.023 152.789C216.145 152.578 216.209 152.34 216.209 152.097C216.209 151.854 216.145 151.615 216.023 151.405C215.901 151.194 215.726 151.02 215.515 150.899L188.506 135.339C188.11 135.11 187.659 134.993 187.201 135C186.743 135.007 186.296 135.138 185.907 135.38Z" fill="white"/>
<path d="M186.648 133.867C186.648 133.867 194.088 109.842 194.048 109.842C194.007 109.842 194.281 108.776 195.611 109.375L224.183 126.194C224.183 126.194 225.563 126.752 225.3 128.041C225.036 129.33 218.022 151.559 218.022 151.559C217.876 151.77 217.666 151.929 217.423 152.013C217.181 152.097 216.917 152.101 216.672 152.026C215.799 151.752 187.318 135.207 187.318 135.207C187.057 135.11 186.843 134.918 186.719 134.669C186.594 134.421 186.569 134.134 186.648 133.867Z" fill="#053855"/>
<path d="M194.515 111.578L223.777 128.64L217.707 149.011L188.069 132.467L194.515 111.578Z" fill="#68E1FD"/>
<path d="M184.811 137.927L178.254 141.987C178.137 142.057 178.039 142.157 177.971 142.276C177.904 142.395 177.868 142.53 177.868 142.667C177.868 142.804 177.904 142.939 177.971 143.058C178.039 143.178 178.137 143.277 178.254 143.347L201.782 156.755C202.134 156.959 202.533 157.066 202.939 157.066C203.345 157.066 203.744 156.959 204.096 156.755C205.609 155.872 208.217 154.289 209.811 153.305C209.943 153.211 210.05 153.087 210.125 152.943C210.199 152.799 210.238 152.639 210.238 152.477C210.238 152.315 210.199 152.156 210.125 152.012C210.05 151.868 209.943 151.744 209.811 151.65L186.131 137.887C185.928 137.773 185.698 137.716 185.465 137.724C185.233 137.731 185.007 137.801 184.811 137.927Z" fill="#68E1FD"/>
<path d="M185.166 149.011L193.388 153.629C193.512 153.702 193.615 153.805 193.687 153.93C193.759 154.055 193.796 154.196 193.796 154.34C193.796 154.484 193.759 154.625 193.687 154.75C193.615 154.874 193.512 154.978 193.388 155.05L188.557 157.882C188.39 157.978 188.201 158.029 188.008 158.029C187.816 158.029 187.627 157.978 187.46 157.882L179.046 153.091C178.941 153.031 178.853 152.944 178.792 152.839C178.731 152.733 178.699 152.614 178.699 152.493C178.699 152.371 178.731 152.252 178.792 152.146C178.853 152.041 178.941 151.954 179.046 151.894L184.121 149.001C184.282 148.915 184.462 148.872 184.645 148.873C184.828 148.875 185.007 148.922 185.166 149.011Z" fill="#68E1FD"/>
<path opacity="0.1" d="M184.811 137.927L178.254 141.987C178.137 142.057 178.039 142.157 177.971 142.276C177.904 142.395 177.868 142.53 177.868 142.667C177.868 142.804 177.904 142.939 177.971 143.058C178.039 143.178 178.137 143.277 178.254 143.347L201.782 156.755C202.134 156.959 202.533 157.066 202.939 157.066C203.345 157.066 203.744 156.959 204.096 156.755C205.609 155.872 208.217 154.289 209.811 153.305C209.943 153.211 210.05 153.087 210.125 152.943C210.199 152.799 210.238 152.639 210.238 152.477C210.238 152.315 210.199 152.156 210.125 152.012C210.05 151.868 209.943 151.744 209.811 151.65L186.131 137.887C185.928 137.773 185.698 137.716 185.465 137.724C185.233 137.731 185.007 137.801 184.811 137.927Z" fill="#053855"/>
<path opacity="0.1" d="M185.166 149.011L193.388 153.629C193.512 153.702 193.615 153.805 193.687 153.93C193.759 154.055 193.796 154.196 193.796 154.34C193.796 154.484 193.759 154.625 193.687 154.75C193.615 154.874 193.512 154.978 193.388 155.05L188.557 157.882C188.39 157.978 188.201 158.029 188.008 158.029C187.816 158.029 187.627 157.978 187.46 157.882L179.046 153.091C178.941 153.031 178.853 152.944 178.792 152.839C178.731 152.733 178.699 152.614 178.699 152.493C178.699 152.371 178.731 152.252 178.792 152.146C178.853 152.041 178.941 151.954 179.046 151.894L184.121 149.001C184.282 148.915 184.462 148.872 184.645 148.873C184.828 148.875 185.007 148.922 185.166 149.011Z" fill="#053855"/>
<path d="M146.008 161.029C146.008 161.029 149.185 165.657 149.702 164.703C150.22 163.749 151.408 156.583 151.408 156.583L144.363 153.914" fill="#EEAD97"/>
<path d="M174.702 252.47C174.717 252.729 174.831 252.971 175.02 253.149C175.208 253.326 175.458 253.425 175.717 253.424C176.732 253.505 185.775 249.587 187.998 254.896C188.129 255.224 188.14 255.587 188.031 255.923C187.921 256.258 187.698 256.545 187.399 256.733C182.881 259.64 177.769 261.498 172.438 262.173C170.616 262.548 168.721 262.309 167.049 261.493L167.475 251.455L174.702 252.47Z" fill="#C24327"/>
<path d="M152.717 247.862C152.717 247.862 161.223 242.31 162.715 245.832C163.862 248.552 153.691 256.469 149.946 257.078C146.201 257.687 145.693 253.769 145.693 253.769L145.815 247.324" fill="#C24327"/>
<path d="M169.373 167.068C169.373 167.068 177.899 185.429 177.747 251.739C177.747 251.739 176.011 256.317 163.699 253.17L158.705 193.945L156.543 248.583C156.543 248.583 150.758 252.876 141.765 247.72C141.765 247.72 143.795 174.64 148.698 161.445" fill="#68E1FD"/>
<path d="M148.292 163.718C146.16 154.695 141.765 131.37 146.475 127.818C150.535 124.773 160.137 128.082 167.434 133.015C173.423 137.075 170.977 160.613 169.941 168.793C162.004 169.778 154.605 168.398 148.292 163.718Z" fill="#C24327"/>
<path d="M166.196 114.643C166.196 114.643 166.399 126.63 163.06 126.925C161.752 127.143 160.409 126.935 159.23 126.33C158.05 125.724 157.098 124.755 156.513 123.565" fill="#EEAD97"/>
<path d="M161.385 125.422V131.127C161.385 131.127 158.34 132.304 154.047 129.452V124.803" fill="#EEAD97"/>
<path d="M165.587 116.856C165.587 116.856 169.647 112.623 166.998 109.02C164.349 105.417 161.385 107.325 161.385 107.325C161.385 107.325 160.756 105.762 157.619 105.447C154.483 105.133 153.235 108.269 151.976 109.051C150.717 109.832 148.687 112.096 148.525 114.044C148.363 115.993 151.194 126.61 154.483 127.392C157.772 128.173 161.984 129.401 165.587 116.856Z" fill="#C24327"/>
<path d="M148.495 126.955C148.495 126.955 141.39 126.833 134.548 135.907C127.707 144.982 145.48 163.211 145.653 162.297C145.825 161.384 148.495 153.274 148.495 153.274C148.495 153.274 140.72 146.595 142.039 144.647C143.359 142.698 148.495 141.754 148.495 141.754" fill="#C24327"/>
<path d="M194.433 145.58C194.433 145.58 201.082 144.565 201.934 143.368C202.787 142.17 202.34 139.054 201.853 138.201C201.366 137.349 198.757 138.79 198.757 138.79C198.757 138.79 198.757 137.948 197.621 137.968C196.484 137.988 194.504 139.927 194.504 139.927L187.542 143.987L188.09 150.503L194.433 145.58Z" fill="#EEAD97"/>
<path d="M168.795 134.486C168.795 134.486 176.245 146.23 176.377 146.585C176.509 146.94 187.45 141.764 187.45 141.764C187.45 141.764 190.434 142.556 192.576 148.229C192.576 148.229 183.248 160.927 169.779 158.379C163.354 157.141 160.177 146.108 160.177 146.108" fill="#C24327"/>
<path d="M80.9057 132.101C80.8086 131.682 80.6254 131.288 80.3677 130.944C79.8868 130.364 79.3142 129.867 78.6727 129.472C70.0756 123.656 58.19 122.053 49.1057 127.737C47.0757 129.036 43.9495 131.979 45.1777 134.75C45.8882 136.364 48.0501 137.298 49.5422 137.958C54.4142 140.099 59.8546 141.125 65.0818 142.018C67.0103 142.343 68.949 142.667 70.8978 142.85C72.2426 142.981 73.5988 142.771 74.8408 142.239C76.0828 141.707 77.1704 140.869 78.0028 139.805C79.3426 138.1 81.5147 134.618 80.9057 132.101Z" fill="#754C24"/>
<path d="M44.9341 133.492C44.9341 133.492 52.7699 140.597 66.31 139.582C79.8501 138.567 80.9056 132.132 80.9056 132.132C80.9056 132.132 77.4039 177.005 75.5465 177.807C73.689 178.608 66.7768 181.867 63.4476 182.161C60.1184 182.455 49.5523 178.182 49.2884 177.015C49.0245 175.848 44.9341 133.492 44.9341 133.492Z" fill="#68E1FD"/>
<path d="M47.4107 68.0953C46.9945 67.2528 45.7156 67.9938 46.1318 68.8362C55.3987 87.5122 57.2054 108.543 58.87 128.965C58.9411 129.899 60.423 129.909 60.3519 128.965C58.6569 108.269 56.84 87.025 47.4107 68.0953Z" fill="#007F68"/>
<path d="M46.2231 68.2678C46.2231 68.2678 48.8113 77.9611 46.1419 82.8026C43.4724 87.6442 41.2597 88.6186 44.457 94.668C47.6542 100.717 56.1802 101.499 56.7588 106.117C57.3373 110.735 52.6582 76.4995 46.2231 68.2678Z" fill="#007F68"/>
<path d="M75.851 85.7664C68.7346 100.705 64.7354 116.937 64.0973 133.471C64.0973 134.618 65.8532 134.618 65.904 133.471C66.5261 117.252 70.4422 101.328 77.4141 86.6698C77.9013 85.6345 76.3483 84.7311 75.851 85.7664Z" fill="#007F68"/>
<path d="M77.14 90.4963C77.14 89.4813 76.9269 87.6137 77.0284 85.8984C76.69 86.1217 76.3517 86.3382 76.0134 86.548C72.4913 95.1044 67.2438 115.201 65.6604 121.362C67.802 116.754 76.5716 116.125 79.1396 109.497C80.2775 106.705 80.3318 103.588 79.2918 100.758C78.0195 97.4777 77.2927 94.0113 77.14 90.4963Z" fill="#007F68"/>
<path d="M349.86 129.868C351.758 140.404 347.039 149.62 339.314 150.452C331.59 151.285 323.785 143.408 321.877 132.873C319.969 122.337 324.699 113.121 332.423 112.288C340.147 111.456 347.962 119.332 349.86 129.868Z" fill="#F4F4F4"/>
<path d="M340.664 138.485C340.66 139.391 340.43 140.28 339.995 141.074C339.803 141.415 339.545 141.714 339.237 141.954C338.928 142.195 338.575 142.372 338.198 142.474C337.415 142.632 336.604 142.573 335.853 142.302L335.762 145.093C335.762 145.905 335.234 146.108 334.747 145.854C334.505 145.709 334.308 145.499 334.179 145.248C334.049 144.997 333.993 144.715 334.016 144.433L334.108 141.551C332.862 140.854 331.814 139.851 331.063 138.638C330.191 137.242 329.721 135.634 329.702 133.989L332.747 135.166C332.775 135.872 332.952 136.564 333.265 137.196C333.475 137.628 333.769 138.015 334.128 138.333L334.3 132.832C333.479 132.202 332.696 131.525 331.956 130.802C331.321 130.111 330.812 129.314 330.454 128.447C330.024 127.385 329.837 126.241 329.905 125.098C329.894 124.159 330.151 123.236 330.646 122.438C331.08 121.798 331.747 121.354 332.504 121.2C333.235 121.086 333.984 121.149 334.686 121.383L334.808 117.81C334.808 116.998 335.346 116.795 335.823 117.049C336.064 117.195 336.261 117.405 336.39 117.656C336.519 117.907 336.575 118.188 336.554 118.47L336.442 122.103C337.614 122.751 338.596 123.692 339.294 124.834C340.105 126.159 340.553 127.675 340.593 129.229L337.467 128.031C337.422 127.405 337.253 126.794 336.97 126.234C336.803 125.916 336.587 125.624 336.33 125.372L336.158 130.711C336.983 131.375 337.769 132.087 338.513 132.842C339.154 133.536 339.669 134.336 340.035 135.207C340.48 136.241 340.695 137.36 340.664 138.485ZM336.95 138.973C337.155 138.763 337.314 138.513 337.417 138.239C337.52 137.965 337.565 137.672 337.548 137.379C337.575 136.72 337.41 136.068 337.071 135.501C336.8 135.076 336.48 134.685 336.117 134.334L335.955 139.206C336.131 139.243 336.313 139.241 336.488 139.2C336.663 139.16 336.827 139.082 336.97 138.973M333.59 127.93C333.879 128.377 334.219 128.79 334.605 129.158L334.757 124.448C334.585 124.407 334.406 124.401 334.232 124.43C334.058 124.46 333.891 124.525 333.742 124.621C333.543 124.808 333.389 125.037 333.291 125.292C333.193 125.547 333.152 125.82 333.174 126.092C333.144 126.735 333.299 127.372 333.62 127.93" fill="#8B54BA"/>
<path d="M282.393 73.83V120.672C282.393 124.59 288.483 124.6 288.483 120.672V73.83C288.483 69.9121 282.393 69.902 282.393 73.83Z" fill="white"/>
<path d="M291.894 88.5475V126.427C291.894 130.345 297.984 130.355 297.984 126.427V88.5475C297.984 84.6296 291.894 84.6195 291.894 88.5475Z" fill="white"/>
<path d="M301.739 99.2761V132.7C301.739 136.618 307.829 136.628 307.829 132.7V99.2761C307.829 95.3582 301.739 95.348 301.739 99.2761Z" fill="white"/>
<path d="M282.393 81.8384V120.713C282.393 124.631 288.483 124.641 288.483 120.713V86.01C286.433 84.6804 284.383 83.3 282.393 81.8384Z" fill="#A2C609"/>
<path d="M291.894 94.7086V126.427C291.894 130.345 297.984 130.355 297.984 126.427V99.3065C295.855 97.9085 293.821 96.3726 291.894 94.7086Z" fill="#FF9F9F"/>
<path d="M301.739 110.37V132.7C301.739 136.618 307.829 136.628 307.829 132.7V114.034C305.871 112.698 303.837 111.474 301.739 110.37Z" fill="#8B54BA"/>
<path d="M241.2 131.127C248.622 129.513 252.506 118.395 249.874 106.295C247.242 94.1947 239.092 85.6942 231.67 87.3084C224.248 88.9227 220.364 100.04 222.996 112.14C225.627 124.241 233.778 132.741 241.2 131.127Z" fill="white"/>
<path d="M236.434 110.664L226.578 90.4557C226.578 90.4557 233.511 81.4019 243.549 92.7598L236.434 110.664Z" fill="#8B54BA"/>
<path d="M236.434 110.664L250.644 115.354C250.644 115.354 252.228 102.768 243.539 92.7699L236.434 110.664Z" fill="#FF9F9F"/>
<path d="M251.507 151.173L259.708 146.057L266.397 154.34L278.14 148.798L289.559 162.368L304.784 158.958V182.171L251.507 151.173Z" fill="#8B54BA"/>
<path d="M216.297 54.1593L244.25 70.6226C244.508 70.7437 244.803 70.764 245.076 70.6793C245.349 70.5947 245.58 70.4113 245.725 70.165C245.87 69.9187 245.917 69.6272 245.858 69.3477C245.799 69.0681 245.638 68.8206 245.407 68.6535L217.443 52.1902C217.185 52.0691 216.89 52.0488 216.617 52.1335C216.344 52.2181 216.113 52.4016 215.968 52.6479C215.824 52.8942 215.776 53.1856 215.835 53.4652C215.894 53.7447 216.055 53.9922 216.286 54.1593H216.297Z" fill="white"/>
<path d="M215.667 59.9042L243.6 76.3675C243.859 76.4886 244.153 76.5089 244.426 76.4242C244.699 76.3396 244.93 76.1562 245.075 75.9099C245.22 75.6636 245.268 75.3721 245.209 75.0926C245.15 74.813 244.989 74.5655 244.757 74.3984L216.824 57.9351C216.566 57.814 216.271 57.7937 215.998 57.8784C215.725 57.963 215.494 58.1464 215.349 58.3927C215.204 58.639 215.157 58.9305 215.216 59.21C215.274 59.4896 215.435 59.7371 215.667 59.9042Z" fill="white"/>
<path d="M215.667 65.71L243.6 82.1936C243.859 82.3147 244.153 82.335 244.426 82.2503C244.699 82.1657 244.93 81.9823 245.075 81.736C245.22 81.4897 245.268 81.1982 245.209 80.9187C245.15 80.6391 244.989 80.3916 244.757 80.2245L216.824 63.7612C216.57 63.6595 216.288 63.6519 216.029 63.7398C215.77 63.8277 215.551 64.0052 215.412 64.2404C215.272 64.4756 215.221 64.7529 215.268 65.0224C215.315 65.2919 215.456 65.5357 215.667 65.71Z" fill="white"/>
<path d="M310.844 134.426L279.724 116.105C279.622 116.044 279.531 116.013 279.429 115.973V123.007L310.154 141.094C310.371 141.222 310.603 141.324 310.844 141.399V134.426Z" fill="#053855"/>
<defs>
<linearGradient id="paint0_linear_16_3" x1="232.313" y1="238.646" x2="162.329" y2="187.419" gradientUnits="userSpaceOnUse">
<stop stop-color="white" stop-opacity="0"/>
<stop offset="0.99" stop-color="#808080"/>
</linearGradient>
<linearGradient id="paint1_linear_16_3" x1="214.652" y1="286.747" x2="176.945" y2="255.2" gradientUnits="userSpaceOnUse">
<stop stop-color="white" stop-opacity="0"/>
<stop offset="0.99" stop-color="#808080"/>
</linearGradient>
<linearGradient id="paint2_linear_16_3" x1="115.395" y1="206.907" x2="77.8302" y2="175.482" gradientUnits="userSpaceOnUse">
<stop stop-color="white" stop-opacity="0"/>
<stop offset="0.99" stop-color="#808080"/>
</linearGradient>
</defs>
</svg>
