<svg width="121" height="40" viewBox="0 0 121 40" fill="none" xmlns="http://www.w3.org/2000/svg">
<path d="M22.5 1.875V16.875H23.125V17.5H38.125V1.875H22.5Z" fill="#E5E6EB"/>
<path d="M23.125 1.875V7.7375C23.4588 7.35241 23.9023 7.07854 24.3961 6.95257C24.89 6.82661 25.4105 6.85457 25.888 7.03271C26.3654 7.21085 26.7771 7.53066 27.0677 7.94929C27.3583 8.36792 27.5141 8.86537 27.5141 9.375C27.5141 9.88463 27.3583 10.3821 27.0677 10.8007C26.7771 11.2193 26.3654 11.5392 25.888 11.7173C25.4105 11.8954 24.89 11.9234 24.3961 11.7974C23.9023 11.6715 23.4588 11.3976 23.125 11.0125V16.875H17.2625C17.6476 16.5412 17.9215 16.0977 18.0474 15.6039C18.1734 15.11 18.1454 14.5895 17.9673 14.1121C17.7892 13.6346 17.4693 13.2229 17.0507 12.9323C16.6321 12.6417 16.1346 12.4859 15.625 12.4859C15.1154 12.4859 14.6179 12.6417 14.1993 12.9323C13.7807 13.2229 13.4608 13.6346 13.2827 14.1121C13.1046 14.5895 13.0766 15.11 13.2026 15.6039C13.3285 16.0977 13.6024 16.5412 13.9875 16.875H8.125V1.875H23.125Z" fill="#D9DAE2"/>
<path d="M32.2625 16.875C32.6476 16.5412 32.9215 16.0977 33.0474 15.6039C33.1734 15.11 33.1454 14.5895 32.9673 14.1121C32.7892 13.6346 32.4693 13.2229 32.0507 12.9323C31.6321 12.6417 31.1346 12.4859 30.625 12.4859C30.1154 12.4859 29.6179 12.6417 29.1993 12.9323C28.7807 13.2229 28.4608 13.6346 28.2827 14.1121C28.1046 14.5895 28.0766 15.11 28.2026 15.6039C28.3285 16.0977 28.6024 16.5412 28.9875 16.875H23.125V23.3625C23.4588 22.9774 23.9023 22.7035 24.3961 22.5776C24.89 22.4516 25.4105 22.4796 25.8879 22.6577C26.3654 22.8359 26.7771 23.1557 27.0677 23.5743C27.3583 23.9929 27.5141 24.4904 27.5141 25C27.5141 25.5096 27.3583 26.0071 27.0677 26.4257C26.7771 26.8443 26.3654 27.1642 25.8879 27.3423C25.4105 27.5204 24.89 27.5484 24.3961 27.4224C23.9023 27.2965 23.4588 27.0226 23.125 26.6375V31.875H38.125V16.875H32.2625Z" fill="#D9DAE2"/>
<path d="M17.5 28.125C17.5001 27.3694 17.329 26.6236 16.9994 25.9436C16.6698 25.2636 16.1904 24.6672 15.5972 24.1991C15.0041 23.731 14.3125 23.4035 13.5745 23.2411C12.8365 23.0787 12.0713 23.0857 11.3365 23.2615C10.6016 23.4374 9.91609 23.7775 9.33155 24.2563C8.747 24.7352 8.27859 25.3403 7.96151 26.0262C7.64443 26.712 7.48693 27.4609 7.50085 28.2164C7.51477 28.9719 7.69974 29.7144 8.04187 30.3881C8.88124 31.9481 9.33815 33.6852 9.375 35.4563V35.625H15.625V35.4525C15.6289 33.7233 16.0659 32.0225 16.8963 30.5056C17.2937 29.7752 17.5013 28.9566 17.5 28.125Z" fill="#027DE5"/>
<path d="M13.125 36.25H11.875V31.25C11.875 30.7527 12.0725 30.2758 12.4242 29.9242C12.7758 29.5726 13.2527 29.375 13.75 29.375C13.9158 29.375 14.0747 29.3092 14.1919 29.192C14.3092 29.0748 14.375 28.9158 14.375 28.75V28.1919C14.3808 28.0362 14.3326 27.8832 14.2387 27.7589C14.1447 27.6345 14.0108 27.5464 13.8594 27.5094C13.7694 27.4934 13.6771 27.4973 13.5888 27.5209C13.5005 27.5445 13.4185 27.5871 13.3485 27.6458C13.2785 27.7045 13.2222 27.7778 13.1836 27.8606C13.145 27.9434 13.125 28.0337 13.125 28.125C13.125 28.2908 13.0592 28.4498 12.9419 28.567C12.8247 28.6842 12.6658 28.75 12.5 28.75C12.3342 28.75 12.1753 28.6842 12.0581 28.567C11.9408 28.4498 11.875 28.2908 11.875 28.125C11.875 27.9593 11.8092 27.8003 11.6919 27.6831C11.5747 27.5659 11.4158 27.5 11.25 27.5C11.0842 27.5 10.9253 27.5659 10.8081 27.6831C10.6908 27.8003 10.625 27.9593 10.625 28.125H9.375C9.37513 27.7631 9.47999 27.409 9.67692 27.1054C9.87385 26.8018 10.1544 26.5616 10.4848 26.4139C10.8152 26.2662 11.1813 26.2173 11.5389 26.2731C11.8965 26.3288 12.2303 26.4869 12.5 26.7282C12.5125 26.7169 12.5244 26.7063 12.5369 26.6963C12.7453 26.5194 12.9897 26.3901 13.2532 26.3173C13.5167 26.2446 13.7929 26.2302 14.0625 26.275C14.5064 26.3606 14.9061 26.5995 15.1917 26.9499C15.4773 27.3002 15.6307 27.7399 15.625 28.1919V28.75C15.625 29.2473 15.4275 29.7242 15.0758 30.0759C14.7242 30.4275 14.2473 30.625 13.75 30.625C13.5842 30.625 13.4253 30.6909 13.3081 30.8081C13.1908 30.9253 13.125 31.0843 13.125 31.25V36.25Z" fill="white"/>
<path d="M13.125 18.75H11.875V21.25H13.125V18.75Z" fill="#027DE5"/>
<path d="M4.15189 23.2089L3.52686 24.2914L5.69188 25.5415L6.31691 24.459L4.15189 23.2089Z" fill="#027DE5"/>
<path d="M20.8485 23.2086L18.6833 24.4584L19.3083 25.541L21.4734 24.2911L20.8485 23.2086Z" fill="#027DE5"/>
<path d="M8.04125 19.7772L6.95874 20.4022L8.20882 22.5672L9.29133 21.9422L8.04125 19.7772Z" fill="#027DE5"/>
<path d="M16.9587 19.7769L15.7089 21.9421L16.7914 22.567L18.0413 20.4018L16.9587 19.7769Z" fill="#027DE5"/>
<path d="M15.625 35.625H9.375V38.125H15.625V35.625Z" fill="#0468AD"/>
<path d="M23.125 31.875H38.125V16.875C38.125 20.8532 36.5446 24.6686 33.7316 27.4816C30.9186 30.2946 27.1032 31.875 23.125 31.875Z" fill="#CFCFD9"/>
<path d="M9.375 6.875V3.125H13.125L9.375 6.875Z" fill="white"/>
<path d="M38.125 1.25H8.125C7.95924 1.25 7.80027 1.31585 7.68306 1.43306C7.56585 1.55027 7.5 1.70924 7.5 1.875V16.875C7.5 17.0408 7.56585 17.1997 7.68306 17.3169C7.80027 17.4342 7.95924 17.5 8.125 17.5H13.9875C14.1147 17.5 14.2389 17.4612 14.3434 17.3888C14.448 17.3163 14.5279 17.2137 14.5726 17.0946C14.6173 16.9756 14.6246 16.8457 14.5936 16.7223C14.5625 16.599 14.4945 16.4881 14.3988 16.4044C14.1955 16.2311 14.0322 16.0158 13.9202 15.7734C13.8082 15.5309 13.7502 15.2671 13.75 15C13.75 14.5027 13.9475 14.0258 14.2992 13.6742C14.6508 13.3225 15.1277 13.125 15.625 13.125C16.1223 13.125 16.5992 13.3225 16.9508 13.6742C17.3025 14.0258 17.5 14.5027 17.5 15C17.4998 15.2671 17.4418 15.5309 17.3298 15.7734C17.2178 16.0158 17.0545 16.2311 16.8512 16.4044C16.7555 16.4881 16.6875 16.599 16.6564 16.7223C16.6254 16.8457 16.6327 16.9756 16.6774 17.0946C16.7221 17.2137 16.802 17.3163 16.9066 17.3888C17.0111 17.4612 17.1353 17.5 17.2625 17.5H22.5V23.3625C22.5 23.4897 22.5388 23.6139 22.6112 23.7184C22.6837 23.823 22.7863 23.9029 22.9054 23.9476C23.0244 23.9923 23.1543 23.9996 23.2777 23.9686C23.401 23.9375 23.5119 23.8695 23.5956 23.7737C23.7689 23.5705 23.9842 23.4073 24.2266 23.2952C24.4691 23.1832 24.7329 23.1252 25 23.125C25.4973 23.125 25.9742 23.3225 26.3258 23.6742C26.6775 24.0258 26.875 24.5027 26.875 25C26.875 25.4973 26.6775 25.9742 26.3258 26.3258C25.9742 26.6775 25.4973 26.875 25 26.875C24.7329 26.8748 24.4691 26.8168 24.2266 26.7048C23.9842 26.5927 23.7689 26.4295 23.5956 26.2263C23.5119 26.1305 23.401 26.0625 23.2777 26.0314C23.1543 26.0004 23.0244 26.0077 22.9054 26.0524C22.7863 26.0971 22.6837 26.177 22.6112 26.2816C22.5388 26.3861 22.5 26.5103 22.5 26.6375V31.875C22.5 32.0408 22.5658 32.1997 22.6831 32.3169C22.8003 32.4342 22.9592 32.5 23.125 32.5H38.125C38.2908 32.5 38.4497 32.4342 38.5669 32.3169C38.6842 32.1997 38.75 32.0408 38.75 31.875V1.875C38.75 1.70924 38.6842 1.55027 38.5669 1.43306C38.4497 1.31585 38.2908 1.25 38.125 1.25ZM37.5 16.25H33.4831C33.6588 15.8567 33.7498 15.4308 33.75 15C33.75 14.1712 33.4208 13.3763 32.8347 12.7903C32.2487 12.2042 31.4538 11.875 30.625 11.875C29.7962 11.875 29.0013 12.2042 28.4153 12.7903C27.8292 13.3763 27.5 14.1712 27.5 15C27.5002 15.4308 27.5912 15.8567 27.7669 16.25H23.75V12.2331C24.1433 12.4088 24.5692 12.4998 25 12.5C25.8288 12.5 26.6237 12.1708 27.2097 11.5847C27.7958 10.9987 28.125 10.2038 28.125 9.375C28.125 8.5462 27.7958 7.75134 27.2097 7.16529C26.6237 6.57924 25.8288 6.25 25 6.25C24.5692 6.25024 24.1433 6.34117 23.75 6.51688V2.5H37.5V16.25ZM15.625 11.875C14.7965 11.876 14.0022 12.2056 13.4164 12.7914C12.8306 13.3772 12.501 14.1715 12.5 15C12.5002 15.4308 12.5912 15.8567 12.7669 16.25H8.75V2.5H22.5V7.7375C22.5 7.86469 22.5388 7.98886 22.6112 8.09341C22.6837 8.19796 22.7863 8.27793 22.9054 8.32262C23.0244 8.36732 23.1543 8.37462 23.2777 8.34355C23.401 8.31249 23.5119 8.24453 23.5956 8.14875C23.7689 7.9455 23.9842 7.78225 24.2266 7.67025C24.4691 7.55825 24.7329 7.50016 25 7.5C25.4973 7.5 25.9742 7.69754 26.3258 8.04917C26.6775 8.40081 26.875 8.87772 26.875 9.375C26.875 9.87228 26.6775 10.3492 26.3258 10.7008C25.9742 11.0525 25.4973 11.25 25 11.25C24.7329 11.2498 24.4691 11.1918 24.2266 11.0798C23.9842 10.9678 23.7689 10.8045 23.5956 10.6012C23.5119 10.5055 23.401 10.4375 23.2777 10.4064C23.1543 10.3754 23.0244 10.3827 22.9054 10.4274C22.7863 10.4721 22.6837 10.552 22.6112 10.6566C22.5388 10.7611 22.5 10.8853 22.5 11.0125V16.25H18.4831C18.6588 15.8567 18.7498 15.4308 18.75 15C18.749 14.1715 18.4194 13.3772 17.8336 12.7914C17.2478 12.2056 16.4535 11.876 15.625 11.875ZM37.5 31.25H23.75V27.8581C24.1433 28.0338 24.5692 28.1248 25 28.125C25.8288 28.125 26.6237 27.7958 27.2097 27.2097C27.7958 26.6237 28.125 25.8288 28.125 25C28.125 24.1712 27.7958 23.3763 27.2097 22.7903C26.6237 22.2042 25.8288 21.875 25 21.875C24.5692 21.8752 24.1433 21.9662 23.75 22.1419V17.5H28.9875C29.1147 17.5 29.2389 17.4612 29.3434 17.3888C29.448 17.3163 29.5279 17.2137 29.5726 17.0946C29.6173 16.9756 29.6246 16.8457 29.5936 16.7223C29.5625 16.599 29.4945 16.4881 29.3987 16.4044C29.1955 16.2311 29.0323 16.0158 28.9202 15.7734C28.8082 15.5309 28.7502 15.2671 28.75 15C28.75 14.5027 28.9475 14.0258 29.2992 13.6742C29.6508 13.3225 30.1277 13.125 30.625 13.125C31.1223 13.125 31.5992 13.3225 31.9508 13.6742C32.3025 14.0258 32.5 14.5027 32.5 15C32.4998 15.2671 32.4418 15.5309 32.3298 15.7734C32.2177 16.0158 32.0545 16.2311 31.8513 16.4044C31.7555 16.4881 31.6875 16.599 31.6564 16.7223C31.6254 16.8457 31.6327 16.9756 31.6774 17.0946C31.7221 17.2137 31.802 17.3163 31.9066 17.3888C32.0111 17.4612 32.1353 17.5 32.2625 17.5H37.5V31.25Z" fill="black"/>
<path d="M56.688 16.096C55.8453 16.096 55.0667 15.9573 54.352 15.68C53.6373 15.392 53.0187 14.992 52.496 14.48C51.9733 13.968 51.5627 13.3653 51.264 12.672C50.976 11.9787 50.832 11.2213 50.832 10.4C50.832 9.57867 50.976 8.82133 51.264 8.128C51.5627 7.43467 51.9733 6.832 52.496 6.32C53.0293 5.808 53.6533 5.41333 54.368 5.136C55.0827 4.848 55.8613 4.704 56.704 4.704C57.5147 4.704 58.2773 4.84267 58.992 5.12C59.7067 5.38667 60.3093 5.792 60.8 6.336L60.048 7.088C59.5893 6.61867 59.0827 6.28267 58.528 6.08C57.9733 5.86667 57.376 5.76 56.736 5.76C56.064 5.76 55.44 5.87733 54.864 6.112C54.288 6.336 53.7867 6.66133 53.36 7.088C52.9333 7.504 52.5973 7.99467 52.352 8.56C52.1173 9.11467 52 9.728 52 10.4C52 11.072 52.1173 11.6907 52.352 12.256C52.5973 12.8107 52.9333 13.3013 53.36 13.728C53.7867 14.144 54.288 14.4693 54.864 14.704C55.44 14.928 56.064 15.04 56.736 15.04C57.376 15.04 57.9733 14.9333 58.528 14.72C59.0827 14.5067 59.5893 14.1653 60.048 13.696L60.8 14.448C60.3093 14.992 59.7067 15.4027 58.992 15.68C58.2773 15.9573 57.5093 16.096 56.688 16.096ZM68.223 16V14.144L68.175 13.84V10.736C68.175 10.0213 67.9723 9.472 67.567 9.088C67.1723 8.704 66.5803 8.512 65.791 8.512C65.247 8.512 64.7297 8.60267 64.239 8.784C63.7483 8.96533 63.3323 9.20533 62.991 9.504L62.479 8.656C62.9057 8.29333 63.4177 8.016 64.015 7.824C64.6123 7.62133 65.2417 7.52 65.903 7.52C66.991 7.52 67.8283 7.792 68.415 8.336C69.0123 8.86933 69.311 9.68533 69.311 10.784V16H68.223ZM65.327 16.08C64.6977 16.08 64.1483 15.9787 63.679 15.776C63.2203 15.5627 62.8683 15.2747 62.623 14.912C62.3777 14.5387 62.255 14.112 62.255 13.632C62.255 13.1947 62.3563 12.8 62.559 12.448C62.7723 12.0853 63.1137 11.7973 63.583 11.584C64.063 11.36 64.703 11.248 65.503 11.248H68.399V12.096H65.535C64.7243 12.096 64.159 12.24 63.839 12.528C63.5297 12.816 63.375 13.1733 63.375 13.6C63.375 14.08 63.5617 14.464 63.935 14.752C64.3083 15.04 64.831 15.184 65.503 15.184C66.143 15.184 66.6923 15.04 67.151 14.752C67.6203 14.4533 67.9617 14.0267 68.175 13.472L68.431 14.256C68.2177 14.8107 67.8443 15.2533 67.311 15.584C66.7883 15.9147 66.127 16.08 65.327 16.08ZM72.3965 16V7.6H73.4845V9.888L73.3725 9.488C73.6072 8.848 74.0018 8.36267 74.5565 8.032C75.1112 7.69067 75.7992 7.52 76.6205 7.52V8.624C76.5778 8.624 76.5352 8.624 76.4925 8.624C76.4498 8.61333 76.4072 8.608 76.3645 8.608C75.4792 8.608 74.7858 8.88 74.2845 9.424C73.7832 9.95733 73.5325 10.72 73.5325 11.712V16H72.3965ZM82.0393 16.08C81.2286 16.08 80.4979 15.8987 79.8473 15.536C79.2073 15.1627 78.7006 14.656 78.3273 14.016C77.9539 13.3653 77.7673 12.624 77.7673 11.792C77.7673 10.9493 77.9539 10.208 78.3273 9.568C78.7006 8.928 79.2073 8.42667 79.8473 8.064C80.4873 7.70133 81.2179 7.52 82.0393 7.52C82.8713 7.52 83.6073 7.70133 84.2473 8.064C84.8979 8.42667 85.4046 8.928 85.7673 9.568C86.1406 10.208 86.3273 10.9493 86.3273 11.792C86.3273 12.624 86.1406 13.3653 85.7673 14.016C85.4046 14.656 84.8979 15.1627 84.2473 15.536C83.5966 15.8987 82.8606 16.08 82.0393 16.08ZM82.0393 15.072C82.6473 15.072 83.1859 14.9387 83.6553 14.672C84.1246 14.3947 84.4926 14.0107 84.7593 13.52C85.0366 13.0187 85.1753 12.4427 85.1753 11.792C85.1753 11.1307 85.0366 10.5547 84.7593 10.064C84.4926 9.57333 84.1246 9.19467 83.6553 8.928C83.1859 8.65067 82.6526 8.512 82.0553 8.512C81.4579 8.512 80.9246 8.65067 80.4553 8.928C79.9859 9.19467 79.6126 9.57333 79.3353 10.064C79.0579 10.5547 78.9193 11.1307 78.9193 11.792C78.9193 12.4427 79.0579 13.0187 79.3353 13.52C79.6126 14.0107 79.9859 14.3947 80.4553 14.672C80.9246 14.9387 81.4526 15.072 82.0393 15.072ZM88.6465 16V4.128H89.7825V16H88.6465ZM92.9434 16V7.6H94.0794V16H92.9434ZM93.5194 5.744C93.2847 5.744 93.0874 5.664 92.9274 5.504C92.7674 5.344 92.6874 5.152 92.6874 4.928C92.6874 4.704 92.7674 4.51733 92.9274 4.368C93.0874 4.208 93.2847 4.128 93.5194 4.128C93.754 4.128 93.9514 4.20267 94.1114 4.352C94.2714 4.50133 94.3514 4.688 94.3514 4.912C94.3514 5.14667 94.2714 5.344 94.1114 5.504C93.962 5.664 93.7647 5.744 93.5194 5.744ZM101.528 7.52C102.211 7.52 102.808 7.65333 103.32 7.92C103.843 8.176 104.248 8.57067 104.536 9.104C104.835 9.63733 104.984 10.3093 104.984 11.12V16H103.848V11.232C103.848 10.3467 103.624 9.68 103.176 9.232C102.739 8.77333 102.12 8.544 101.32 8.544C100.723 8.544 100.2 8.66667 99.7523 8.912C99.3149 9.14667 98.9736 9.49333 98.7283 9.952C98.4936 10.4 98.3763 10.944 98.3763 11.584V16H97.2403V7.6H98.3283V9.904L98.1523 9.472C98.4189 8.864 98.8456 8.38933 99.4323 8.048C100.019 7.696 100.718 7.52 101.528 7.52ZM111.621 16.08C110.746 16.08 109.978 15.8987 109.317 15.536C108.655 15.1627 108.138 14.656 107.765 14.016C107.391 13.3653 107.205 12.624 107.205 11.792C107.205 10.96 107.381 10.224 107.733 9.584C108.095 8.944 108.586 8.44267 109.205 8.08C109.834 7.70667 110.538 7.52 111.317 7.52C112.106 7.52 112.805 7.70133 113.413 8.064C114.031 8.416 114.517 8.91733 114.869 9.568C115.221 10.208 115.397 10.9493 115.397 11.792C115.397 11.8453 115.391 11.904 115.381 11.968C115.381 12.0213 115.381 12.08 115.381 12.144H108.069V11.296H114.773L114.325 11.632C114.325 11.024 114.191 10.4853 113.925 10.016C113.669 9.536 113.317 9.16267 112.869 8.896C112.421 8.62933 111.903 8.496 111.317 8.496C110.741 8.496 110.223 8.62933 109.765 8.896C109.306 9.16267 108.949 9.536 108.693 10.016C108.437 10.496 108.309 11.0453 108.309 11.664V11.84C108.309 12.48 108.447 13.0453 108.725 13.536C109.013 14.016 109.407 14.3947 109.909 14.672C110.421 14.9387 111.002 15.072 111.653 15.072C112.165 15.072 112.639 14.9813 113.077 14.8C113.525 14.6187 113.909 14.3413 114.229 13.968L114.869 14.704C114.495 15.152 114.026 15.4933 113.461 15.728C112.906 15.9627 112.293 16.08 111.621 16.08ZM54.912 36.096C54.08 36.096 53.28 35.9627 52.512 35.696C51.7547 35.4187 51.168 35.0667 50.752 34.64L51.216 33.728C51.6107 34.112 52.1387 34.4373 52.8 34.704C53.472 34.96 54.176 35.088 54.912 35.088C55.616 35.088 56.1867 35.0027 56.624 34.832C57.072 34.6507 57.3973 34.4107 57.6 34.112C57.8133 33.8133 57.92 33.4827 57.92 33.12C57.92 32.6827 57.792 32.3307 57.536 32.064C57.2907 31.7973 56.9653 31.5893 56.56 31.44C56.1547 31.28 55.7067 31.1413 55.216 31.024C54.7253 30.9067 54.2347 30.784 53.744 30.656C53.2533 30.5173 52.8 30.336 52.384 30.112C51.9787 29.888 51.648 29.5947 51.392 29.232C51.1467 28.8587 51.024 28.3733 51.024 27.776C51.024 27.2213 51.168 26.7147 51.456 26.256C51.7547 25.7867 52.208 25.4133 52.816 25.136C53.424 24.848 54.2027 24.704 55.152 24.704C55.7813 24.704 56.4053 24.7947 57.024 24.976C57.6427 25.1467 58.176 25.3867 58.624 25.696L58.224 26.64C57.744 26.32 57.232 26.0853 56.688 25.936C56.1547 25.7867 55.6373 25.712 55.136 25.712C54.464 25.712 53.9093 25.8027 53.472 25.984C53.0347 26.1653 52.7093 26.4107 52.496 26.72C52.2933 27.0187 52.192 27.36 52.192 27.744C52.192 28.1813 52.3147 28.5333 52.56 28.8C52.816 29.0667 53.1467 29.2747 53.552 29.424C53.968 29.5733 54.4213 29.7067 54.912 29.824C55.4027 29.9413 55.888 30.0693 56.368 30.208C56.8587 30.3467 57.3067 30.528 57.712 30.752C58.128 30.9653 58.4587 31.2533 58.704 31.616C58.96 31.9787 59.088 32.4533 59.088 33.04C59.088 33.584 58.9387 34.0907 58.64 34.56C58.3413 35.0187 57.8827 35.392 57.264 35.68C56.656 35.9573 55.872 36.096 54.912 36.096ZM66.6918 36V34.144L66.6438 33.84V30.736C66.6438 30.0213 66.4411 29.472 66.0358 29.088C65.6411 28.704 65.0491 28.512 64.2598 28.512C63.7158 28.512 63.1984 28.6027 62.7078 28.784C62.2171 28.9653 61.8011 29.2053 61.4598 29.504L60.9478 28.656C61.3744 28.2933 61.8864 28.016 62.4838 27.824C63.0811 27.6213 63.7104 27.52 64.3718 27.52C65.4598 27.52 66.2971 27.792 66.8838 28.336C67.4811 28.8693 67.7798 29.6853 67.7798 30.784V36H66.6918ZM63.7958 36.08C63.1664 36.08 62.6171 35.9787 62.1478 35.776C61.6891 35.5627 61.3371 35.2747 61.0918 34.912C60.8464 34.5387 60.7238 34.112 60.7238 33.632C60.7238 33.1947 60.8251 32.8 61.0278 32.448C61.2411 32.0853 61.5824 31.7973 62.0518 31.584C62.5318 31.36 63.1718 31.248 63.9718 31.248H66.8678V32.096H64.0038C63.1931 32.096 62.6278 32.24 62.3078 32.528C61.9984 32.816 61.8438 33.1733 61.8438 33.6C61.8438 34.08 62.0304 34.464 62.4038 34.752C62.7771 35.04 63.2998 35.184 63.9718 35.184C64.6118 35.184 65.1611 35.04 65.6198 34.752C66.0891 34.4533 66.4304 34.0267 66.6438 33.472L66.8998 34.256C66.6864 34.8107 66.3131 35.2533 65.7798 35.584C65.2571 35.9147 64.5958 36.08 63.7958 36.08ZM74.2093 36.08C73.4093 36.08 72.6893 35.8987 72.0493 35.536C71.4199 35.1733 70.9239 34.672 70.5613 34.032C70.1986 33.3813 70.0173 32.6347 70.0173 31.792C70.0173 30.9387 70.1986 30.192 70.5613 29.552C70.9239 28.912 71.4199 28.416 72.0493 28.064C72.6893 27.7013 73.4093 27.52 74.2093 27.52C74.9453 27.52 75.6013 27.6853 76.1773 28.016C76.7639 28.3467 77.2279 28.832 77.5693 29.472C77.9213 30.1013 78.0972 30.8747 78.0972 31.792C78.0972 32.6987 77.9266 33.472 77.5853 34.112C77.2439 34.752 76.7799 35.2427 76.1933 35.584C75.6173 35.9147 74.9559 36.08 74.2093 36.08ZM74.2893 35.072C74.8866 35.072 75.4199 34.9387 75.8893 34.672C76.3693 34.3947 76.7426 34.0107 77.0093 33.52C77.2866 33.0187 77.4253 32.4427 77.4253 31.792C77.4253 31.1307 77.2866 30.5547 77.0093 30.064C76.7426 29.5733 76.3693 29.1947 75.8893 28.928C75.4199 28.6507 74.8866 28.512 74.2893 28.512C73.7026 28.512 73.1746 28.6507 72.7053 28.928C72.2359 29.1947 71.8626 29.5733 71.5853 30.064C71.3079 30.5547 71.1693 31.1307 71.1693 31.792C71.1693 32.4427 71.3079 33.0187 71.5853 33.52C71.8626 34.0107 72.2359 34.3947 72.7053 34.672C73.1746 34.9387 73.7026 35.072 74.2893 35.072ZM77.4573 36V33.472L77.5693 31.776L77.4093 30.08V24.128H78.5453V36H77.4573ZM86.973 36V34.144L86.925 33.84V30.736C86.925 30.0213 86.7223 29.472 86.317 29.088C85.9223 28.704 85.3303 28.512 84.541 28.512C83.997 28.512 83.4797 28.6027 82.989 28.784C82.4983 28.9653 82.0823 29.2053 81.741 29.504L81.229 28.656C81.6557 28.2933 82.1677 28.016 82.765 27.824C83.3623 27.6213 83.9917 27.52 84.653 27.52C85.741 27.52 86.5783 27.792 87.165 28.336C87.7623 28.8693 88.061 29.6853 88.061 30.784V36H86.973ZM84.077 36.08C83.4477 36.08 82.8983 35.9787 82.429 35.776C81.9703 35.5627 81.6183 35.2747 81.373 34.912C81.1277 34.5387 81.005 34.112 81.005 33.632C81.005 33.1947 81.1063 32.8 81.309 32.448C81.5223 32.0853 81.8637 31.7973 82.333 31.584C82.813 31.36 83.453 31.248 84.253 31.248H87.149V32.096H84.285C83.4743 32.096 82.909 32.24 82.589 32.528C82.2797 32.816 82.125 33.1733 82.125 33.6C82.125 34.08 82.3117 34.464 82.685 34.752C83.0583 35.04 83.581 35.184 84.253 35.184C84.893 35.184 85.4423 35.04 85.901 34.752C86.3703 34.4533 86.7117 34.0267 86.925 33.472L87.181 34.256C86.9677 34.8107 86.5943 35.2533 86.061 35.584C85.5383 35.9147 84.877 36.08 84.077 36.08Z" fill="black"/>
</svg>
