<svg width="473" height="385" viewBox="0 0 473 385" fill="none" xmlns="http://www.w3.org/2000/svg">
<path d="M472.5 0.5H4.49995C4.49995 0.5 -2.55893 40.8871 4.49995 68.5C13.9787 105.579 80.858 36.9354 102.5 68.5C121.167 95.7255 82.4441 135.866 100.5 163.5C124.781 200.662 192.683 115.749 224 147.211C250.173 173.505 196.598 215.977 221 243.922C251.198 278.504 300.748 198.302 334.5 229.425C364.112 256.731 306.399 296.023 337.422 321.715C374.949 352.793 404.502 255.933 447.421 279C477.768 295.31 471.602 339.624 472.5 367.471V0.5Z" fill="white"/>
<path d="M472.5 367.471C471.602 339.624 477.768 295.31 447.421 279C404.502 255.933 374.949 352.793 337.422 321.715C306.399 296.023 364.112 256.731 334.5 229.425C300.748 198.302 251.198 278.504 221 243.922C196.598 215.977 250.173 173.505 224 147.211C192.683 115.749 124.781 200.662 100.5 163.5C82.4441 135.866 121.167 95.7255 102.5 68.5C80.858 36.9354 13.9787 105.579 4.49995 68.5C-2.55893 40.8871 4.49995 0.5 4.49995 0.5H472.5V367.471ZM472.5 367.471C472.831 377.757 472.5 384.5 472.5 384.5L472.5 367.471Z" stroke="white"/>
</svg>
